# xmcd
#
# Track frame offsets:
# 150
# 16249
# 30514
# 45247
# 60085
# 75490
# 90402
# 109439
# 123392
# 138783
# 156079
#
# Disc length: 2378 seconds
#
#
# Revision: 0
# Processed by: cddbd v1.5.1PL0 Copyright (c) Steve Scherf et al.
# Submitted via: FreeRIP 2.30 
#
DISCID=7209480b
DTITLE=LordSong - Soul Food
DYEAR=2004
DGENRE=Contemporary Christian
TTITLE0=All My Reasons Are You
TTITLE1=Pass The Faith Along
TTITLE2=Cross Was Enough
TTITLE3=My Good, Your Glory
TTITLE4=So Close To The Truth
TTITLE5=Shout To The Lord
TTITLE6=I Know The Plans I Have For You
TTITLE7=Just Like That
TTITLE8=I Want To Live It All
TTITLE9=I Am Sure Of You
TTITLE10=Wandering Heart
EXTD=
EXTT0=
EXTT1=
EXTT2=
EXTT3=
EXTT4=
EXTT5=
EXTT6=
EXTT7=
EXTT8=
EXTT9=
EXTT10=
PLAYORDER=
